<?xml version="1.0" encoding="UTF-8"?>
<svg id="_레이어_1" data-name="레이어_1" xmlns="http://www.w3.org/2000/svg" version="1.1" viewBox="0 0 24 24">
  <!-- Generator: Adobe Illustrator 30.4.0, SVG Export Plug-In . SVG Version: 2.1.4 Build 226)  -->
  <defs>
    <style>
      .st0 {
        fill: #1962fc;
      }
    </style>
  </defs>
  <path class="st0" d="M21,3c.6,0,1,.4,1,1v5.3c0,.6-.4,1-1,1s-1-.4-1-1v-2.3H2v12h10.7c.6,0,1,.4,1,1s-.4,1-1,1H1c-.6,0-1-.4-1-1V4c0-.6.4-1,1-1h20Z"/>
  <path class="st0" d="M19.7,12.2c1.1-.6,2.5.2,2.5,1.5,0,.6.3,1.1.8,1.4,1.1.7,1.1,2.3,0,2.9-.5.3-.8.8-.8,1.4,0,1.3-1.4,2.1-2.5,1.5-.5-.3-1.1-.3-1.6,0-1.1.6-2.5-.2-2.5-1.5,0-.6-.3-1.1-.8-1.4-1.1-.7-1.1-2.3,0-2.9.5-.3.8-.8.8-1.4,0-1.3,1.4-2.1,2.5-1.5.5.3,1.1.3,1.6,0ZM19,14c-1.4,0-2.5,1.1-2.5,2.5,0,1.4,1.1,2.5,2.5,2.5s2.5-1.1,2.5-2.5c0-1.4-1.1-2.5-2.5-2.5Z"/>
</svg>