<svg width="24" height="24" viewBox="0 0 24 24" fill="none" xmlns="http://www.w3.org/2000/svg">
<path d="M11.4297 1.17896C11.7965 0.923865 12.2934 0.942182 12.6416 1.23364L22.6416 9.60571C22.8685 9.79571 23 10.0764 23 10.3723V22.0002C22.9999 22.5525 22.5522 23.0002 22 23.0002H2C1.44776 23.0002 1.00008 22.5525 1 22.0002V10.3723C1.00001 10.0764 1.1315 9.79571 1.3584 9.60571L11.3584 1.23364L11.4297 1.17896ZM3 10.8381V21.0002H11V15.0002C11 14.448 11.4477 14.0002 12 14.0002C12.5523 14.0002 13 14.448 13 15.0002V21.0002H21V10.8381L12 3.30396L3 10.8381Z" fill="white"/>
</svg>
