<svg width="24" height="24" viewBox="0 0 24 24" fill="none" xmlns="http://www.w3.org/2000/svg">
<path d="M21 3C21.5523 3 22 3.44772 22 4V9.33301C22 9.88529 21.5523 10.333 21 10.333C20.4477 10.333 20 9.88529 20 9.33301V7H2V19H12.7168C13.2691 19 13.7168 19.4477 13.7168 20C13.7168 20.5523 13.2691 21 12.7168 21H1C0.447715 21 0 20.5523 0 20V4C0 3.44772 0.447715 3 1 3H21ZM19 11C19.5523 11 20 11.4477 20 12V15H23C23.5523 15 24 15.4477 24 16C24 16.5523 23.5523 17 23 17H20V20C20 20.5523 19.5523 21 19 21C18.4477 21 18 20.5523 18 20V17H15C14.4477 17 14 16.5523 14 16C14 15.4477 14.4477 15 15 15H18V12C18 11.4477 18.4477 11 19 11Z" fill="white"/>
</svg>
