<svg width="24" height="24" viewBox="0 0 24 24" fill="none" xmlns="http://www.w3.org/2000/svg">
<path d="M15 0.5C15.5523 0.5 16 0.947715 16 1.5V6C16 6.55228 15.5523 7 15 7C14.4477 7 14 6.55228 14 6V2.5H2.5V21H15C15.5523 21 16 21.4477 16 22C16 22.5523 15.5523 23 15 23H1.5C0.947715 23 0.5 22.5523 0.5 22V1.5C0.5 0.947715 0.947715 0.5 1.5 0.5H15ZM18.709 2.8916C18.9594 2.39949 19.5615 2.20295 20.0537 2.45312L22.7275 3.81348C23.2196 4.06383 23.416 4.66608 23.166 5.1582L22.7119 6.0498L17.1348 17.0117L17.1064 16.9971L13.2285 19.1768L12.7051 14.7578L12.6787 14.7441L18.2559 3.78223L18.709 2.8916ZM9 13C9.55228 13 10 13.4477 10 14C10 14.5523 9.55228 15 9 15H6C5.44772 15 5 14.5523 5 14C5 13.4477 5.44772 13 6 13H9ZM15.3682 13.8682L16.2588 14.3223L20.0225 6.92578L19.1309 6.47168L15.3682 13.8682ZM11 9C11.5523 9 12 9.44771 12 10C12 10.5523 11.5523 11 11 11H6C5.44772 11 5 10.5523 5 10C5 9.44771 5.44772 9 6 9H11ZM11 5C11.5523 5 12 5.44772 12 6C12 6.55228 11.5523 7 11 7H6C5.44772 7 5 6.55228 5 6C5 5.44772 5.44772 5 6 5H11Z" fill="white"/>
</svg>
