<?xml version="1.0" encoding="UTF-8"?>
<svg id="_레이어_1" data-name="레이어_1" xmlns="http://www.w3.org/2000/svg" version="1.1" viewBox="0 0 24 24">
  <!-- Generator: Adobe Illustrator 30.4.0, SVG Export Plug-In . SVG Version: 2.1.4 Build 226)  -->
  <defs>
    <style>
      .st0 {
        fill: #182032;
      }
    </style>
  </defs>
  <path class="st0" d="M11.4,1.2c.4-.3.9-.2,1.2,0l10,8.4c.2.2.4.5.4.8v11.6c0,.6-.4,1-1,1H2c-.6,0-1-.4-1-1v-11.6c0-.3.1-.6.4-.8L11.4,1.2h0ZM3,10.8v10.2h8v-6c0-.6.4-1,1-1s1,.4,1,1v6h8v-10.2L12,3.3,3,10.8Z"/>
</svg>