<svg width="24" height="24" viewBox="0 0 24 24" fill="none" xmlns="http://www.w3.org/2000/svg">
<path d="M16.501 2.49463C16.729 2.10524 17.1904 1.91683 17.626 2.03467C18.0615 2.15282 18.3641 2.54824 18.3643 2.99951V5.38428H20.1338L20.3379 5.39502C21.3462 5.49757 22.1328 6.34883 22.1328 7.38428V12.9214L22.1221 13.1265C22.0263 14.0675 21.2789 14.816 20.3379 14.9116L20.1338 14.9214H18.3643V17.3062C18.3641 17.7575 18.0616 18.1528 17.626 18.271C17.1904 18.3889 16.729 18.2005 16.501 17.811C16.1262 17.171 15.376 16.5719 14.2461 16.0503C13.6335 15.7676 12.9397 15.5229 12.1914 15.311L9.53613 21.2876C9.37564 21.6487 9.01723 21.8823 8.62207 21.8823H3.05859C2.70963 21.8822 2.38549 21.7 2.2041 21.4019C2.0229 21.1035 2.01022 20.7313 2.1709 20.4214L5.35938 14.272C4.05183 14.1961 2.85012 14.1821 1.89453 14.2095C1.3429 14.2249 0.882159 13.7904 0.866211 13.2388C0.863809 13.1542 0.873072 13.0717 0.890625 12.9927C0.389865 12.9381 3.3785e-08 12.5148 0 11.9995V7.99951C0.000212059 7.4911 0.379843 7.07153 0.871094 7.0083C0.916725 6.48493 1.36266 6.08137 1.89453 6.09619C3.98954 6.15609 7.26624 6.02625 10.2529 5.45068C11.7467 5.16279 13.1308 4.77014 14.2461 4.25537C15.376 3.73378 16.1262 3.13462 16.501 2.49463ZM4.70312 19.8823H7.97168L9.97852 15.3667L7.31055 14.8511L4.70312 19.8823ZM16.3643 14.938V14.9214H16.3379C16.3466 14.927 16.3556 14.9323 16.3643 14.938ZM16.1729 5.48682C15.8263 5.70125 15.4615 5.89753 15.084 6.07178C13.7687 6.67883 12.2131 7.10961 10.6309 7.41455C7.54178 8.00982 4.20361 8.14911 2 8.09717V11.9995C2 12.0708 1.9917 12.1405 1.97754 12.2075C4.18088 12.1541 7.53129 12.2938 10.6309 12.8911C12.2131 13.1961 13.7687 13.6268 15.084 14.2339C15.4613 14.4081 15.8265 14.6036 16.1729 14.8179V5.48682ZM18.3643 12.9214H20.1338V7.38428H18.3643V12.9214ZM16.3379 5.38428H16.3643V5.36768C16.3556 5.37336 16.3466 5.37862 16.3379 5.38428Z" fill="white"/>
</svg>
