<?xml version="1.0" encoding="UTF-8"?>
<svg id="_레이어_1" data-name="레이어_1" xmlns="http://www.w3.org/2000/svg" version="1.1" viewBox="0 0 24 24">
  <!-- Generator: Adobe Illustrator 30.4.0, SVG Export Plug-In . SVG Version: 2.1.4 Build 226)  -->
  <defs>
    <style>
      .st0 {
        fill: #182032;
      }
    </style>
  </defs>
  <path class="st0" d="M15,.5c.6,0,1,.4,1,1v4.5c0,.6-.4,1-1,1s-1-.4-1-1v-3.5H2.5v18.5h12.5c.6,0,1,.4,1,1s-.4,1-1,1H1.5c-.6,0-1-.4-1-1V1.5C.5.9.9.5,1.5.5h13.5ZM18.7,2.9c.3-.5.9-.7,1.3-.4l2.7,1.4c.5.3.7.9.4,1.3l-.5.9-5.6,11h0s-3.9,2.2-3.9,2.2l-.5-4.4h0s5.6-11,5.6-11l.5-.9ZM9,13c.6,0,1,.4,1,1s-.4,1-1,1h-3c-.6,0-1-.4-1-1s.4-1,1-1h3ZM15.4,13.9l.9.5,3.8-7.4-.9-.5-3.8,7.4ZM11,9c.6,0,1,.4,1,1s-.4,1-1,1h-5c-.6,0-1-.4-1-1s.4-1,1-1h5ZM11,5c.6,0,1,.4,1,1s-.4,1-1,1h-5c-.6,0-1-.4-1-1s.4-1,1-1h5Z"/>
</svg>