<?xml version="1.0" encoding="UTF-8"?>
<svg id="_레이어_1" data-name="레이어_1" xmlns="http://www.w3.org/2000/svg" version="1.1" viewBox="0 0 24 24">
  <!-- Generator: Adobe Illustrator 30.4.0, SVG Export Plug-In . SVG Version: 2.1.4 Build 226)  -->
  <defs>
    <style>
      .st0 {
        fill: #182032;
      }
    </style>
  </defs>
  <path class="st0" d="M4.5,14h0c.8,0,1.5.7,1.5,1.5v4c0,.8-.7,1.5-1.5,1.5h0c-.8,0-1.5-.7-1.5-1.5v-4c0-.8.7-1.5,1.5-1.5Z"/>
  <path class="st0" d="M9.5,6h0c.8,0,1.5.7,1.5,1.5v12c0,.8-.7,1.5-1.5,1.5h0c-.8,0-1.5-.7-1.5-1.5V7.5c0-.8.7-1.5,1.5-1.5Z"/>
  <path class="st0" d="M14.5,9h0c.8,0,1.5.7,1.5,1.5v9c0,.8-.7,1.5-1.5,1.5h0c-.8,0-1.5-.7-1.5-1.5v-9c0-.8.7-1.5,1.5-1.5Z"/>
  <path class="st0" d="M19.5,3h0c.8,0,1.5.7,1.5,1.5v15c0,.8-.7,1.5-1.5,1.5h0c-.8,0-1.5-.7-1.5-1.5V4.5c0-.8.7-1.5,1.5-1.5Z"/>
</svg>