<?xml version="1.0" encoding="UTF-8"?>
<svg id="_레이어_1" data-name="레이어_1" xmlns="http://www.w3.org/2000/svg" version="1.1" viewBox="0 0 24 24">
  <!-- Generator: Adobe Illustrator 30.4.0, SVG Export Plug-In . SVG Version: 2.1.4 Build 226)  -->
  <defs>
    <style>
      .st0 {
        fill: #182032;
      }
    </style>
  </defs>
  <path class="st0" d="M16.5,2.5c.2-.4.7-.6,1.1-.5.4.1.7.5.7,1v2.4h2c1,.1,1.8,1,1.8,2v5.7c-.1.9-.9,1.7-1.8,1.8h-.2s-1.8,0-1.8,0v2.4c0,.5-.3.8-.7,1-.4.1-.9,0-1.1-.5-.4-.6-1.1-1.2-2.3-1.8-.6-.3-1.3-.5-2.1-.7l-2.7,6c-.2.4-.5.6-.9.6H3.1c-.3,0-.7-.2-.9-.5-.2-.3-.2-.7,0-1l3.2-6.1c-1.3,0-2.5,0-3.5,0-.6,0-1-.4-1-1,0,0,0-.2,0-.2C.4,12.9,0,12.5,0,12v-4c0-.5.4-.9.9-1,0-.5.5-.9,1-.9,2.1,0,5.4,0,8.4-.6,1.5-.3,2.9-.7,4-1.2,1.1-.5,1.9-1.1,2.3-1.8ZM4.7,19.9h3.3l2-4.5-2.7-.5-2.6,5ZM16.4,14.9h0s0,0,0,0c0,0,0,0,0,0ZM16.2,5.5c-.3.2-.7.4-1.1.6-1.3.6-2.9,1-4.5,1.3-3.1.6-6.4.7-8.6.7v3.9c0,0,0,.1,0,.2,2.2,0,5.6,0,8.7.7,1.6.3,3.1.7,4.5,1.3.4.2.7.4,1.1.6V5.5ZM18.4,12.9h1.8v-5.5h-1.8v5.5ZM16.3,5.4h0s0,0,0,0Z"/>
</svg>