<svg width="24" height="24" viewBox="0 0 24 24" fill="none" xmlns="http://www.w3.org/2000/svg">
<path d="M17 1C17.5523 1 18 1.44772 18 2V6C18 6.55228 17.5523 7 17 7C16.4477 7 16 6.55228 16 6V3H4V21H16V18C16 17.4477 16.4477 17 17 17C17.5523 17 18 17.4477 18 18V22C18 22.5523 17.5523 23 17 23H3C2.44772 23 2 22.5523 2 22V2C2 1.44772 2.44772 1 3 1H17ZM18.293 8.29297C18.6835 7.90248 19.3165 7.90246 19.707 8.29297L22.707 11.293C23.0975 11.6835 23.0975 12.3165 22.707 12.707L19.707 15.707C19.3165 16.0975 18.6835 16.0975 18.293 15.707C17.9024 15.3165 17.9024 14.6835 18.293 14.293L19.5859 13H10C9.44772 13 9 12.5523 9 12C9 11.4477 9.44772 11 10 11H19.5859L18.293 9.70703C17.9024 9.31651 17.9024 8.68349 18.293 8.29297Z" fill="#333333"/>
</svg>
