<?xml version="1.0" encoding="UTF-8"?>
<svg id="_레이어_1" xmlns="http://www.w3.org/2000/svg" version="1.1" xmlns:xlink="http://www.w3.org/1999/xlink" viewBox="0 0 24 24">
  <!-- Generator: Adobe Illustrator 30.4.0, SVG Export Plug-In . SVG Version: 2.1.4 Build 226)  -->
  <defs>
    <style>
      .st0 {
        fill: none;
      }

      .st1 {
        fill: #1962fc;
      }

      .st2 {
        clip-path: url(#clippath);
      }
    </style>
    <clipPath id="clippath">
      <rect class="st0" x="3" y="2" width="17.8" height="19.2"/>
    </clipPath>
  </defs>
  <g class="st2">
    <g>
      <path class="st1" d="M15.8,7.9c0-2.1-1.7-3.9-3.9-3.9s-3.9,1.7-3.9,3.9,1.7,3.9,3.9,3.9,3.9-1.7,3.9-3.9ZM17.8,7.9c0,3.2-2.6,5.9-5.9,5.9s-5.9-2.6-5.9-5.9,2.6-5.9,5.9-5.9,5.9,2.6,5.9,5.9Z"/>
      <path class="st1" d="M18.8,20.3c0-3.2-2.6-6.5-6.9-6.5s-6.9,3.3-6.9,6.5-.4,1-1,1-1-.4-1-1c0-4.3,3.4-8.5,8.9-8.5s8.9,4.2,8.9,8.5-.4,1-1,1-1-.4-1-1Z"/>
    </g>
  </g>
</svg>