<svg width="24" height="24" viewBox="0 0 24 24" fill="none" xmlns="http://www.w3.org/2000/svg">
<path d="M21 3C21.5523 3 22 3.44772 22 4V9.33301C22 9.88529 21.5523 10.333 21 10.333C20.4477 10.333 20 9.88529 20 9.33301V7H2V19H12.7168C13.2691 19 13.7168 19.4477 13.7168 20C13.7168 20.5523 13.2691 21 12.7168 21H1C0.447715 21 0 20.5523 0 20V4C0 3.44772 0.447715 3 1 3H21Z" fill="white"/>
<path d="M19.7088 12.2104C20.8366 11.6011 22.1939 12.3842 22.2303 13.6655C22.2466 14.2419 22.5463 14.7691 23.0301 15.0718C24.1059 15.7444 24.0967 17.3291 23.0125 18.0151C22.5247 18.3238 22.2176 18.8544 22.1942 19.4312C22.1421 20.7132 20.7755 21.5139 19.6551 20.9185C19.151 20.6506 18.5444 20.654 18.0369 20.9282C16.9092 21.5375 15.5528 20.7544 15.5164 19.4731C15.5001 18.8967 15.1996 18.3695 14.7156 18.0669C13.6398 17.3943 13.6499 15.8096 14.7342 15.1235C15.2218 14.8149 15.5281 14.2841 15.5516 13.7075C15.6036 12.4256 16.9703 11.6251 18.0906 12.2202C18.5946 12.488 19.2014 12.4845 19.7088 12.2104ZM18.9764 13.9829C17.5925 13.9829 16.4707 15.1049 16.4705 16.4888C16.4705 17.8727 17.5924 18.9946 18.9764 18.9946C20.3603 18.9946 21.4822 17.8727 21.4822 16.4888C21.4821 15.1049 20.3602 13.9829 18.9764 13.9829Z" fill="white"/>
</svg>
