<?xml version="1.0" encoding="UTF-8"?>
<svg id="_레이어_1" data-name="레이어_1" xmlns="http://www.w3.org/2000/svg" version="1.1" viewBox="0 0 24 24">
  <!-- Generator: Adobe Illustrator 30.4.0, SVG Export Plug-In . SVG Version: 2.1.4 Build 226)  -->
  <defs>
    <style>
      .st0 {
        fill: #1962fc;
      }
    </style>
  </defs>
  <path class="st0" d="M21,3c.6,0,1,.4,1,1v5.3c0,.6-.4,1-1,1s-1-.4-1-1v-2.3H2v12h10.7c.6,0,1,.4,1,1s-.4,1-1,1H1c-.6,0-1-.4-1-1V4c0-.6.4-1,1-1h20ZM19,11c.6,0,1,.4,1,1v3h3c.6,0,1,.4,1,1s-.4,1-1,1h-3v3c0,.6-.4,1-1,1s-1-.4-1-1v-3h-3c-.6,0-1-.4-1-1s.4-1,1-1h3v-3c0-.6.4-1,1-1Z"/>
</svg>