<svg width="24" height="24" viewBox="0 0 24 24" fill="none" xmlns="http://www.w3.org/2000/svg">
<path d="M19 12C19 11.7348 18.8946 11.4805 18.707 11.293C18.5195 11.1054 18.2652 11 18 11H6C5.73477 11 5.48048 11.1054 5.29297 11.293C5.1054 11.4806 5 11.7348 5 12V19C5 19.2652 5.1054 19.5195 5.29297 19.707C5.48048 19.8946 5.73477 20 6 20H18C18.2652 20 18.5195 19.8946 18.707 19.707C18.8946 19.5195 19 19.2652 19 19V12ZM11 17V14C11 13.4477 11.4477 13 12 13C12.5523 13 13 13.4477 13 14V17C13 17.5523 12.5523 18 12 18C11.4477 18 11 17.5523 11 17ZM15 7C15 6.20433 14.6837 5.4415 14.1211 4.87891C13.5585 4.31632 12.7957 4 12 4C11.2043 4 10.4415 4.3163 9.87891 4.87891C9.3163 5.44152 9 6.20435 9 7V9H15V7ZM17 9H18C18.7956 9 19.5585 9.31627 20.1211 9.87891C20.6837 10.4415 21 11.2044 21 12V19C21 19.7956 20.6837 20.5585 20.1211 21.1211C19.5585 21.6837 18.7956 22 18 22H6C5.20438 22 4.44153 21.6837 3.87891 21.1211C3.31632 20.5585 3 19.7956 3 19V12C3 11.2044 3.31632 10.4415 3.87891 9.87891C4.44153 9.31625 5.20438 9 6 9H7V7C7 5.67391 7.52717 4.40253 8.46484 3.46484C9.40252 2.52718 10.6739 2 12 2C13.3261 2 14.5975 2.52715 15.5352 3.46484C16.4729 4.40254 17 5.67394 17 7V9Z" fill="#333333"/>
</svg>
