<svg width="24" height="24" viewBox="0 0 24 24" fill="none" xmlns="http://www.w3.org/2000/svg">
<g clip-path="url(#clip0_8_22)">
<path d="M15.75 7.875C15.75 5.73489 14.0151 4 11.875 4C9.73489 4 8 5.73489 8 7.875C8 10.0151 9.73489 11.75 11.875 11.75C14.0151 11.75 15.75 10.0151 15.75 7.875ZM17.75 7.875C17.75 11.1197 15.1197 13.75 11.875 13.75C8.63033 13.75 6 11.1197 6 7.875C6 4.63033 8.63033 2 11.875 2C15.1197 2 17.75 4.63033 17.75 7.875Z" fill="#333333"/>
<path d="M18.75 20.25C18.75 17.0201 16.166 13.75 11.875 13.75C7.58397 13.75 5 17.0201 5 20.25C5 20.8023 4.55228 21.25 4 21.25C3.44772 21.25 3 20.8023 3 20.25C3 15.9799 6.41603 11.75 11.875 11.75C17.334 11.75 20.75 15.9799 20.75 20.25C20.75 20.8023 20.3023 21.25 19.75 21.25C19.1977 21.25 18.75 20.8023 18.75 20.25Z" fill="#333333"/>
</g>
<defs>
<clipPath id="clip0_8_22">
<rect width="17.75" height="19.25" fill="white" transform="translate(3 2)"/>
</clipPath>
</defs>
</svg>
