<svg preserveAspectRatio="none" width="100%" height="100%" overflow="visible" style="display: block;" viewBox="0 0 24 24" fill="none" xmlns="http://www.w3.org/2000/svg">
<g id="Group 4">
<g id="Rectangle 113">
</g>
<path id="Vector 1" d="M12.7172 20H1V4H21V9.33333" stroke="var(--stroke-0, white)" stroke-width="2" stroke-linecap="round" stroke-linejoin="round"/>
<rect id="Rectangle 114" x="2" y="4" width="18" height="3" fill="var(--fill-0, white)"/>
<path id="Subtract" d="M19.7088 12.2099C20.8366 11.6005 22.1941 12.3845 22.2303 13.666C22.2466 14.2424 22.5462 14.7696 23.0301 15.0722C24.1058 15.7448 24.0965 17.3285 23.0125 18.0146C22.5247 18.3233 22.2175 18.8548 22.1941 19.4316C22.1418 20.7134 20.7754 21.5133 19.6551 20.9179C19.151 20.6502 18.5443 20.6545 18.0369 20.9287C16.9091 21.5378 15.5526 20.754 15.5164 19.4726C15.5001 18.8961 15.1996 18.369 14.7156 18.0664C13.6399 17.3937 13.65 15.81 14.7342 15.124C15.2219 14.8153 15.5281 14.2837 15.5515 13.707C15.6039 12.4253 16.9703 11.6255 18.0906 12.2207C18.5947 12.4885 19.2013 12.4841 19.7088 12.2099ZM18.9763 13.9834C17.5924 13.9834 16.4705 15.1052 16.4705 16.4892C16.4706 17.8731 17.5924 18.9951 18.9763 18.9951C20.3603 18.9951 21.4821 17.8731 21.4822 16.4892C21.4822 15.1052 20.3603 13.9834 18.9763 13.9834Z" fill="var(--fill-0, white)"/>
</g>
</svg>
