<?xml version="1.0" encoding="UTF-8"?>
<svg id="_레이어_1" xmlns="http://www.w3.org/2000/svg" version="1.1" viewBox="0 0 2326.9 466.8">
  <!-- Generator: Adobe Illustrator 29.8.0, SVG Export Plug-In . SVG Version: 2.1.1 Build 160)  -->
  <defs>
    <style>
      .st0 {
        fill: #ff2174;
      }

      .st1 {
        fill: #313e48;
      }
    </style>
  </defs>
  <g>
    <path class="st0" d="M437.7,323.4c-49.7,0-90-40.4-90-90s40.4-90,90-90,90,40.4,90,90-40.4,90-90,90ZM437.7,168.4c-35.9,0-65,29.2-65,65s29.2,65,65,65,65-29.2,65-65-29.2-65-65-65h0Z"/>
    <g>
      <path class="st1" d="M329.3,316.9c2.2-4,2-9-.5-12.7-13.7-21.1-21-45.5-21-70.7,0-71.6,58.3-129.9,129.9-129.9h296.6c6.9,0,12.5-5.6,12.5-12.5s-5.6-12.5-12.5-12.5h-296.6c-85.4,0-154.9,69.5-154.9,154.9s4.9,44.8,14.3,65h-43.3c-7.4-20.9-11.3-42.6-11.3-65,0-107.7,87.6-195.3,195.2-195.3h239.1c6.9,0,12.5-5.6,12.5-12.5s-5.6-12.5-12.5-12.5H196.4c-6.9,0-12.5,5.6-12.5,12.5s5.6,12.5,12.5,12.5h139.7c-20.3,10.6-38.7,24.2-54.7,40.4h-142.3c-6.9,0-12.5,5.6-12.5,12.5s5.6,12.5,12.5,12.5h121c-9,12.4-16.8,25.7-23.3,39.8H80.9c-6.9,0-12.5,5.6-12.5,12.5s5.6,12.5,12.5,12.5h146.5c-5.2,16.8-8.4,34.4-9.5,52.6H12.5c-6.9,0-12.5,5.6-12.5,12.5s5.6,12.5,12.5,12.5h205.4c1,17.9,4.2,35.5,9.5,52.6H80.9c-6.9,0-12.5,5.6-12.5,12.5s5.6,12.5,12.5,12.5h237.4c4.6,0,8.8-2.5,11-6.5h0Z"/>
      <path class="st1" d="M863,220.9h-205.4c-1-18-4.2-35.5-9.5-52.6h146.4c6.9,0,12.5-5.6,12.5-12.5s-5.6-12.5-12.5-12.5h-237.4c-4.6,0-8.8,2.5-11,6.5-2.2,4-2,9,.5,12.7,13.7,21.1,21,45.5,21,70.7,0,71.6-58.3,129.9-129.9,129.9H138.6c-6.9,0-12.5,5.6-12.5,12.5s5.6,12.5,12.5,12.5h299.2c85.4,0,154.9-69.5,154.9-154.9s-4.9-44.8-14.3-65.1h43.3c7.4,20.9,11.3,42.6,11.3,65.1,0,107.7-87.6,195.2-195.3,195.2h-241.3c-6.9,0-12.5,5.6-12.5,12.5s5.6,12.5,12.5,12.5h480.5c6.9,0,12.5-5.6,12.5-12.5s-5.6-12.5-12.5-12.5h-137.4c20.4-10.7,39.1-24.5,55.1-40.8h147.1c6.9,0,12.5-5.6,12.5-12.5s-5.6-12.5-12.5-12.5h-125.9c9-12.4,16.8-25.7,23.1-39.8h155.7c6.9,0,12.5-5.6,12.5-12.5s-5.6-12.5-12.5-12.5h-146.3c5.1-16.6,8.2-34,9.3-52.1h205.4c6.9,0,12.5-5.6,12.5-12.5s-5.6-12.5-12.5-12.5h.2Z"/>
    </g>
  </g>
  <g>
    <g>
      <path class="st1" d="M989,211.5c2.2-6.8,5.6-12.9,10.1-18.1,4.5-5.2,10.1-9.3,16.7-12.2,6.6-2.9,14.2-4.4,22.6-4.4s12.8.9,18.2,2.8c5.4,1.9,10.1,4.2,13.9,7.2,3.8,2.9,6.7,6,8.6,9.3,2,3.2,2.9,6.2,2.9,8.9,0,7.4-3.7,11.1-11.1,11.1s-5-.7-6.7-2c-1.6-1.4-3.4-3.4-5.3-6.1-2.6-3.7-5.3-6.5-8.1-8.5-2.8-2-6.9-2.9-12.4-2.9-8,0-14.7,3.3-20.1,9.9-5.4,6.6-8.1,15.5-8.1,26.8s.5,9.8,1.7,14.2c1.1,4.4,2.8,8.3,5.1,11.7,2.3,3.4,5.3,6,9.1,7.9,3.7,1.9,8.2,2.9,13.3,2.9s8.5-1,11.2-3.1c2.7-2.1,5.4-5.1,8.2-9.1,2.1-2.9,3.9-5,5.5-6.4,1.5-1.4,3.5-2,5.8-2s6,.9,8.4,2.5c2.4,1.7,3.6,4,3.6,6.9s-1.1,7.6-3.3,11.3c-2.2,3.7-5.3,7.1-9.2,10.1-3.9,3-8.5,5.4-13.7,7-5.2,1.7-10.7,2.6-16.5,2.6-17.1,0-30.3-4.8-39.6-14.5-9.3-9.6-14-23.7-14-42s1.1-15,3.4-21.8h-.2Z"/>
      <path class="st1" d="M1096,209.9c2.4-6.7,5.9-12.5,10.6-17.5,4.6-5,10.4-8.8,17.2-11.5,6.8-2.7,14.5-4,23.2-4s16.4,1.4,23.2,4c6.8,2.7,12.5,6.5,17.2,11.5,4.6,5,8.2,10.8,10.6,17.5,2.4,6.7,3.6,14,3.6,22s-1.1,15.2-3.4,22.1c-2.2,6.9-5.7,13.1-10.3,18.4-4.6,5.3-10.3,9.6-17.2,12.7-6.9,3.1-14.8,4.7-23.7,4.7s-17.6-1.5-24.5-4.4-12.6-6.9-17.1-12.1c-4.5-5.2-7.7-11.3-9.8-18.3-2.1-7-3.1-14.7-3.1-23.1s1.2-15.3,3.6-22h-.1ZM1118.5,247c1,4.5,2.6,8.5,4.9,12,2.3,3.5,5.4,6.1,9.3,8.1,3.9,2,8.6,2.9,14.2,2.9s10-1,13.9-2.9c3.8-2,7-4.7,9.4-8.2s4.1-7.5,5.2-12.1c1-4.5,1.6-9.5,1.6-14.9,0-10.7-2.5-19.3-7.6-25.7-5.1-6.4-12.5-9.7-22.3-9.7s-17.2,3.2-22.3,9.7c-5.1,6.4-7.6,15-7.6,25.7s.5,10.5,1.5,15.1h-.2,0Z"/>
      <path class="st1" d="M1219,189.5c0-4.5,1.2-7.6,3.7-9.4,2.5-1.8,5.7-2.7,9.6-2.7h7.2c3.8,0,6.7.8,8.8,2.5,2,1.7,3.7,4.6,5,8.7l21.4,69.2h.3l21.1-69.2c1.3-4.1,3-7,5-8.7s5-2.5,8.8-2.5h6.9c3.9,0,7.1.9,9.6,2.7s3.7,4.9,3.7,9.4v87.6c0,3.4-.9,6.3-2.7,8.5-1.8,2.3-4.5,3.4-8.2,3.4s-6.4-1.1-8.2-3.4c-1.8-2.3-2.7-5.1-2.7-8.5v-66.8h-.3l-22.9,71.6c-1.5,4.8-5,7.2-10.5,7.2s-8.9-2.4-10.5-7.2l-22.9-71.6h-.3v66.8c0,3.4-.9,6.3-2.7,8.5-1.8,2.3-4.5,3.4-8.2,3.4s-6.4-1.1-8.2-3.4c-1.8-2.3-2.7-5.1-2.7-8.5v-87.6h0Z"/>
      <path class="st1" d="M1352.1,189.5c0-4.5,1.2-7.6,3.7-9.4,2.5-1.8,5.7-2.7,9.6-2.7h7.2c3.8,0,6.7.8,8.8,2.5,2,1.7,3.7,4.6,5,8.7l21.4,69.2h.3l21.1-69.2c1.3-4.1,3-7,5-8.7s5-2.5,8.8-2.5h6.9c3.9,0,7.1.9,9.6,2.7s3.7,4.9,3.7,9.4v87.6c0,3.4-.9,6.3-2.7,8.5-1.8,2.3-4.5,3.4-8.2,3.4s-6.4-1.1-8.2-3.4c-1.8-2.3-2.7-5.1-2.7-8.5v-66.8h-.3l-22.9,71.6c-1.5,4.8-5,7.2-10.5,7.2s-8.9-2.4-10.5-7.2l-22.9-71.6h-.3v66.8c0,3.4-.9,6.3-2.7,8.5-1.8,2.3-4.5,3.4-8.2,3.4s-6.4-1.1-8.2-3.4c-1.8-2.3-2.7-5.1-2.7-8.5v-87.6h0Z"/>
      <path class="st1" d="M1485.6,189.7c0-3.7,1.1-6.7,3.4-8.9s5.2-3.4,8.9-3.4,6.8,1.1,9,3.4c2.2,2.2,3.3,5.2,3.3,8.9v59c0,7.2,1.9,12.5,5.8,16,3.8,3.5,9.4,5.2,16.6,5.2s12.7-1.8,16.6-5.2c3.8-3.5,5.8-8.9,5.8-16v-59c0-3.7,1.1-6.7,3.4-8.9,2.3-2.2,5.2-3.4,8.9-3.4s6.8,1.1,9,3.4c2.2,2.2,3.3,5.2,3.3,8.9v57.1c0,14.4-4.1,25.2-12.4,32.3-8.2,7.1-19.8,10.7-34.5,10.7s-26.3-3.6-34.5-10.7c-8.2-7.1-12.4-17.9-12.4-32.3v-57.1h-.2,0Z"/>
      <path class="st1" d="M1601.7,191.8c0-5.1,1.2-8.8,3.7-11s6.4-3.4,11.7-3.4,9.7,2.1,12.3,6.4l43,69.4h.3v-64c0-7.9,3.9-11.8,11.8-11.8s11.8,3.9,11.8,11.8v84.7c0,5-1.1,8.8-3.5,11.4-2.3,2.6-6,3.9-11.1,3.9s-6.6-.4-8.4-1.3c-1.8-.9-3.5-2.7-5.1-5.2l-42.7-67.4h-.3v62.2c0,7.9-4,11.8-11.8,11.8s-11.8-4-11.8-11.8v-85.6h0Z"/>
      <path class="st1" d="M1718.7,189.7c0-3.7,1.1-6.7,3.4-8.9,2.3-2.2,5.2-3.4,8.9-3.4s6.8,1.1,9,3.4c2.2,2.2,3.3,5.2,3.3,8.9v87.2c0,3.7-1.1,6.7-3.3,8.9s-5.2,3.4-9,3.4-6.7-1.1-8.9-3.4c-2.2-2.2-3.4-5.2-3.4-8.9v-87.2Z"/>
      <path class="st1" d="M1765.9,211.5c2.2-6.8,5.6-12.9,10.1-18.1,4.5-5.2,10.1-9.3,16.7-12.2,6.6-2.9,14.2-4.4,22.6-4.4s12.8.9,18.2,2.8c5.4,1.9,10.1,4.2,13.9,7.2,3.8,2.9,6.7,6,8.6,9.3,2,3.2,2.9,6.2,2.9,8.9,0,7.4-3.7,11.1-11.1,11.1s-5-.7-6.7-2c-1.6-1.4-3.4-3.4-5.3-6.1-2.6-3.7-5.3-6.5-8.1-8.5s-6.9-2.9-12.4-2.9c-8,0-14.7,3.3-20.1,9.9-5.4,6.6-8.1,15.5-8.1,26.8s.5,9.8,1.7,14.2c1.1,4.4,2.8,8.3,5.1,11.7,2.3,3.4,5.3,6,9.1,7.9,3.7,1.9,8.2,2.9,13.3,2.9s8.5-1,11.2-3.1,5.4-5.1,8.2-9.1c2.1-2.9,3.9-5,5.5-6.4,1.5-1.4,3.5-2,5.8-2s6,.9,8.4,2.5c2.4,1.7,3.6,4,3.6,6.9s-1.1,7.6-3.3,11.3-5.3,7.1-9.2,10.1c-3.9,3-8.5,5.4-13.7,7-5.2,1.7-10.7,2.6-16.5,2.6-17.1,0-30.3-4.8-39.6-14.5-9.3-9.6-14-23.7-14-42s1.1-15,3.4-21.8h-.2Z"/>
      <path class="st1" d="M1898.3,184.9c1-2.7,2.5-4.6,4.4-5.8,1.9-1.1,4.5-1.7,7.6-1.7h5.9c3.2,0,5.9.6,8.1,1.9,2.2,1.2,3.9,3.6,5.1,7.1l29.7,82.6c.6,1.7,1.1,3.4,1.6,5.2.5,1.7.8,3.2.8,4.3,0,3-1.1,5.5-3.4,7.6-2.2,2.1-5,3.1-8.2,3.1-5.7,0-9.4-2.2-11.1-6.7l-6.3-18h-39.6l-6.4,18c-1.5,4.5-5.2,6.7-10.9,6.7s-6.1-1-8.2-2.9c-2.1-1.9-3.1-4.6-3.1-7.9s.2-2.5.7-4.3,1-3.5,1.6-5.2l31.8-84.1h0ZM1913.1,204.1h-.3l-14.5,43.3h28.8l-13.9-43.3h0Z"/>
      <path class="st1" d="M1989.4,200h-23.2c-3.7,0-6.7-.9-9.1-2.7-2.4-1.8-3.6-4.3-3.6-7.6s1.2-5.8,3.6-7.6c2.4-1.8,5.5-2.7,9.1-2.7h71c3.7,0,6.7.9,9.1,2.7s3.6,4.3,3.6,7.6-1.2,5.8-3.6,7.6-5.5,2.7-9.1,2.7h-23.2v76.8c0,3.7-1.1,6.7-3.3,8.9-2.2,2.2-5.2,3.4-9,3.4s-6.7-1.1-8.9-3.4c-2.2-2.2-3.4-5.2-3.4-8.9v-76.8h0Z"/>
      <path class="st1" d="M2063.1,189.7c0-3.7,1.1-6.7,3.4-8.9s5.2-3.4,8.9-3.4,6.8,1.1,9,3.4c2.2,2.2,3.3,5.2,3.3,8.9v87.2c0,3.7-1.1,6.7-3.3,8.9-2.2,2.2-5.2,3.4-9,3.4s-6.7-1.1-8.9-3.4c-2.2-2.2-3.4-5.2-3.4-8.9v-87.2Z"/>
      <path class="st1" d="M2109.3,209.9c2.4-6.7,5.9-12.5,10.6-17.5,4.6-5,10.4-8.8,17.2-11.5,6.8-2.7,14.5-4,23.2-4s16.4,1.4,23.2,4c6.8,2.7,12.5,6.5,17.2,11.5,4.6,5,8.2,10.8,10.6,17.5s3.6,14,3.6,22-1.1,15.2-3.4,22.1c-2.2,6.9-5.7,13.1-10.3,18.4-4.6,5.3-10.3,9.6-17.2,12.7-6.9,3.1-14.8,4.7-23.7,4.7s-17.6-1.5-24.5-4.4c-6.9-2.9-12.6-6.9-17.1-12.1-4.5-5.2-7.7-11.3-9.8-18.3-2.1-7-3.1-14.7-3.1-23.1s1.2-15.3,3.6-22h0ZM2131.7,247c1,4.5,2.6,8.5,4.9,12,2.3,3.5,5.4,6.1,9.3,8.1s8.6,2.9,14.2,2.9,10-1,13.9-2.9c3.8-2,7-4.7,9.4-8.2s4.1-7.5,5.2-12.1c1-4.5,1.6-9.5,1.6-14.9,0-10.7-2.5-19.3-7.6-25.7s-12.5-9.7-22.3-9.7-17.2,3.2-22.3,9.7c-5.1,6.4-7.6,15-7.6,25.7s.5,10.5,1.5,15.1h-.2Z"/>
      <path class="st1" d="M2232.3,191.8c0-5.1,1.2-8.8,3.7-11s6.4-3.4,11.7-3.4,9.7,2.1,12.3,6.4l43,69.4h.3v-64c0-7.9,3.9-11.8,11.8-11.8s11.8,3.9,11.8,11.8v84.7c0,5-1.1,8.8-3.5,11.4-2.3,2.6-6,3.9-11.1,3.9s-6.6-.4-8.4-1.3c-1.8-.9-3.5-2.7-5.1-5.2l-42.7-67.4h-.3v62.2c0,7.9-4,11.8-11.8,11.8s-11.8-4-11.8-11.8v-85.6h0Z"/>
    </g>
    <g>
      <path class="st0" d="M985.8,12.4c0-3.7,1.1-6.7,3.4-8.9s5.2-3.4,8.9-3.4,6.8,1.1,9,3.4c2.2,2.2,3.3,5.2,3.3,8.9v87.2c0,3.7-1.1,6.7-3.3,8.9-2.2,2.2-5.2,3.4-9,3.4s-6.7-1.1-8.9-3.4c-2.2-2.2-3.4-5.2-3.4-8.9V12.4Z"/>
      <path class="st0" d="M1114.6,71.6c.6-1.2,1.2-2.5,2-3.7,1.8-3.6,3.1-5.9,3.9-7,2.3-3.1,4.9-4.6,7.8-4.6s4.7.9,6.7,2.5c2,1.7,3,3.7,3,6s-.3,2.8-1,4.6c-.6,1.8-1.5,3.6-2.5,5.5s-2.2,3.7-3.5,5.5c-1.3,1.7-2.6,3.3-4,4.6l9,10.8c1.4,1.7,2.1,3.7,2.1,6s-1,4.7-3.1,6.6c-2,1.9-4.8,2.8-8.2,2.8s-2.9-.3-3.9-1-2.1-1.7-3.5-3.1l-6.9-7.9c-4.7,4.6-9.9,7.9-15.7,10-5.7,2-12.1,3.1-19.1,3.1s-10.7-.9-14.9-2.5c-4.3-1.7-7.7-4-10.5-6.8-2.7-2.8-4.8-6-6.1-9.6-1.4-3.5-2-7.2-2-10.9,0-7.6,2.1-14.1,6.4-19.5,4.2-5.5,10-9.9,17.2-13.4-3.3-3.8-5.8-7.3-7.6-10.5-1.8-3.2-2.7-6.8-2.7-10.9,0-8.3,2.9-14.8,8.7-19.6,5.8-4.7,12.9-7.1,21.3-7.1s10.4.8,14.4,2.4c4,1.6,7.3,3.7,9.7,6.2s4.1,5.3,5.2,8.3c1.1,3,1.6,6,1.6,9.1,0,5.8-1.7,11.1-5.2,15.8-3.4,4.7-8,8.5-13.6,11.2l15,17.5v-.4h0ZM1080.9,62.4c-4.8,2.6-8.5,5.3-11,8.2s-3.8,6.1-3.8,9.7,1.3,7.8,4,10.5c2.6,2.7,6.2,4,10.7,4s7.6-.8,10.6-2.5c3-1.6,6-3.9,9.1-6.7l-19.6-23.2h0ZM1079.5,34.1c1.6,2.1,4.1,4.6,7.6,7.6l.5-.3c3.6-2.2,6.5-4.4,8.6-6.6,2.1-2.2,3.2-5.1,3.2-8.7s-1.1-5-3.2-7c-2.2-1.9-4.8-2.9-8-2.9s-5.8.9-7.9,2.8c-2.1,1.8-3.1,4.1-3.1,6.8s.8,6.1,2.4,8.2h-.1Z"/>
      <path class="st0" d="M1219,103.3c-1.2,3.3-3,5.5-5.3,6.7-2.4,1.2-5.6,1.8-9.7,1.8s-7.3-.6-9.7-1.8-4.1-3.5-5.3-6.7l-30.3-85.1c-1-2.7-1.5-5.1-1.5-7.2,0-3.8,1.2-6.6,3.6-8.3,2.4-1.7,5.3-2.6,8.8-2.6s5.9.9,7.9,2.6c1.9,1.7,3.5,4.5,4.6,8.2l22.2,73.4h.3l23.1-73.4c2.2-7.2,6-10.8,11.5-10.8s6.4.9,8.8,2.6c2.4,1.7,3.6,4.5,3.6,8.3s-.5,4.5-1.5,7.2l-31.2,85.1h.1Z"/>
      <path class="st0" d="M1264.4,12.4c0-3.7,1.1-6.7,3.4-8.9,2.3-2.2,5.2-3.4,8.9-3.4s6.8,1.1,9,3.4c2.2,2.2,3.3,5.2,3.3,8.9v87.2c0,3.7-1.1,6.7-3.3,8.9s-5.2,3.4-9,3.4-6.7-1.1-8.9-3.4c-2.2-2.2-3.4-5.2-3.4-8.9V12.4Z"/>
      <path class="st0" d="M1312.4,16.4c0-5.2,1.2-8.9,3.7-11.1,2.5-2.2,6-3.3,10.7-3.3h57.7c4,0,7.1.7,9.2,2.2,2.1,1.4,3.2,4,3.2,7.7s-1.1,6.1-3.2,7.6c-2.1,1.5-5.2,2.2-9.2,2.2h-47.5v23.4h41.6c3.6,0,6.4.7,8.5,2,2,1.3,3.1,3.8,3.1,7.4s-1,5.9-3.1,7.3c-2,1.4-4.9,2.1-8.5,2.1h-41.6v26.1h48.7c4,0,7.1.7,9.2,2.2,2.1,1.5,3.2,4,3.2,7.7s-1.1,6.1-3.2,7.6c-2.2,1.5-5.2,2.2-9.2,2.2h-58.9c-4.7,0-8.3-1.1-10.7-3.3-2.5-2.2-3.7-5.9-3.7-11.1V16.2v.2h0Z"/>
      <path class="st0" d="M1518.1,100.2c-1.1,4.3-2.7,7.3-4.9,9.1-2.1,1.7-5.5,2.6-10,2.6s-7.8-1-9.9-2.8c-2.1-1.9-3.7-5-4.8-9.3l-16-65.8h-.3l-16,65.8c-1,4.3-2.6,7.4-4.7,9.3-2.1,1.9-5.5,2.8-10,2.8s-7.7-.9-9.9-2.6c-2.2-1.7-3.8-4.8-4.9-9.1l-21.1-82c-.8-3-1.2-5.3-1.2-7,0-3.5,1.2-6.2,3.6-8.2,2.4-1.9,5.1-2.9,8.2-2.9,6.3,0,10.1,3.3,11.5,10l14.5,71.6h.3l16.8-72.5c.7-3.2,2-5.5,3.7-7,1.8-1.4,4.9-2.2,9.1-2.2s8,1,9.8,2.8c1.8,1.9,3.2,4.8,4.1,8.8l16.3,70h.3l14.7-71.6c1.4-6.7,5.1-10,11.1-10s5.9,1,8.2,2.9c2.4,2,3.6,4.7,3.6,8.2s-.4,4-1.2,7l-21.1,82h.2Z"/>
    </g>
    <g>
      <path class="st1" d="M1412,387.5c2.4-6.6,5.9-12.4,10.5-17.4,4.6-5,10.3-8.8,17-11.4,6.7-2.7,14.4-4,23-4s16.3,1.3,23,4,12.4,6.5,17,11.4c4.6,5,8.1,10.7,10.5,17.4,2.4,6.6,3.6,13.9,3.6,21.8s-1.1,15-3.3,21.9c-2.2,6.9-5.6,13-10.2,18.3-4.6,5.3-10.3,9.5-17.1,12.6s-14.7,4.6-23.5,4.6-17.4-1.5-24.3-4.3c-6.9-2.9-12.5-6.9-16.9-12-4.4-5.2-7.7-11.2-9.7-18.1-2.1-6.9-3.1-14.6-3.1-22.9s1.2-15.2,3.6-21.8h0ZM1434.3,424.3c1,4.5,2.6,8.5,4.9,11.9,2.3,3.4,5.4,6.1,9.2,8,3.9,1.9,8.6,2.9,14.1,2.9s9.9-1,13.7-2.9,6.9-4.6,9.3-8.1c2.4-3.5,4.1-7.4,5.1-12,1-4.5,1.6-9.4,1.6-14.8,0-10.6-2.5-19.1-7.6-25.5-5-6.4-12.4-9.6-22.1-9.6s-17.1,3.2-22.1,9.6c-5.1,6.4-7.6,14.9-7.6,25.5s.5,10.4,1.5,14.9h0Z"/>
      <path class="st1" d="M1541.4,464.1h0c-6,0-10.9-4.9-10.9-10.9v-85.4c0-6,4.9-10.9,10.9-10.9h54.3c5,0,9.1,4.1,9.1,9.1v.9c0,5-4.1,9.1-9.1,9.1h-38.2c-2.8,0-5.2,2.3-5.2,5.2v15.2c0,2.2,1.8,4,4,4h32.8c5,0,9.1,4.1,9.1,9.1v.7c0,5-4.1,9.1-9.1,9.1h-31.7c-2.8,0-5.1,2.3-5.1,5.1v29c0,6-4.9,10.9-10.9,10.9v-.2h0Z"/>
      <path class="st1" d="M1834.9,369.4c0-5.3,1.2-9,3.7-11.2s6.1-3.3,10.9-3.3h58.5c4,0,7.2.7,9.3,2.2,2.2,1.5,3.3,4.1,3.3,7.8s-1.1,6.2-3.3,7.7c-2.2,1.5-5.3,2.3-9.3,2.3h-48.1v23.7h42.2c3.6,0,6.5.7,8.6,2.1,2.1,1.4,3.1,3.9,3.1,7.5s-1.1,6-3.1,7.4c-2.1,1.4-4.9,2.1-8.6,2.1h-42.2v26.4h49.3c4,0,7.2.7,9.3,2.2,2.2,1.5,3.3,4.1,3.3,7.8s-1.1,6.2-3.3,7.7c-2.2,1.5-5.3,2.3-9.3,2.3h-59.7c-4.8,0-8.4-1.1-10.9-3.3-2.5-2.2-3.7-6-3.7-11.2v-80.2h0Z"/>
      <path class="st1" d="M1112.8,363.1c1-2.6,2.4-4.5,4.3-5.6s4.3-1.7,7.3-1.7h5.7c3.1,0,5.7.6,7.8,1.8,2.1,1.2,3.8,3.5,4.9,6.9l28.8,80.1c.6,1.6,1.1,3.3,1.6,5s.7,3.1.7,4.1c0,2.9-1.1,5.4-3.3,7.4-2.2,2-4.8,3.1-7.9,3.1-5.5,0-9.1-2.2-10.8-6.5l-6.1-17.5h-38.4l-6.2,17.5c-1.5,4.4-5,6.5-10.6,6.5s-6-.9-8-2.8-3.1-4.4-3.1-7.6.2-2.5.7-4.1c.5-1.7,1-3.4,1.6-5l30.8-81.6h.2ZM1127.2,381.7h-.3l-14.1,42h27.9l-13.5-42Z"/>
      <path class="st1" d="M985.8,365.9c0-5,4.1-9.1,9.1-9.1h43.5c11.3,0,19.7,3.2,25.3,9.6,4.3,4.8,6.4,10.8,6.4,17.8s-1.6,12.1-4.8,16.1c-1.7,2.2-4.4,4.2-7.9,6.2h0c5.8,2.2,10.1,5.7,12.9,10.7,2.3,4,3.4,9.1,3.4,15.2s-.9,8.3-2.6,12.3c-1.6,3.8-3.7,7.1-6.6,9.9-3.4,3.4-6.9,5.7-10.7,7-5,1.7-12.4,2.6-22,2.6h-36.9c-5,0-9.1-4.1-9.1-9.1v-89.1h0ZM1006.9,389.9c0,5,4.1,9.1,9.1,9.1h18.1c4.5,0,8-1,10.7-2.9,3-2.1,4.5-5.1,4.5-9s-1.4-7.5-4.2-9.3c-2.5-1.6-6.3-2.5-11.6-2.5h-17.5c-5,0-9.1,4.1-9.1,9.1v5.5h0ZM1006.9,436.7c0,5,4.1,9.1,9.1,9.1h19.1c5.5,0,9.6-1.3,12.3-3.8,2.9-2.6,4.4-6.7,4.4-12.2s-1.6-7.6-4.9-10c-2.7-1.9-6.2-2.9-10.5-2.9h-20.3c-5,0-9.1,4.1-9.1,9.1v10.7h-.1Z"/>
      <path class="st1" d="M1258.5,392.4c-3.7,0-7-2.3-8.4-5.8-1-2.4-2.1-4.4-3.4-5.9-3.9-4.6-9.7-6.8-17.4-6.8s-12.5,2.4-17.1,7.1c-6,6.4-9,16.3-9,29.7s2,18.8,6,25.3c4.6,7.4,11.3,11.1,20.1,11.1s10.9-1.7,14.8-5.2c2.6-2.3,4.7-5.4,6.2-9.1,1.4-3.5,4.7-5.9,8.5-5.9h3.1c6.4,0,10.9,6.6,8.4,12.5-2.7,6.4-6.3,11.8-10.9,16.1-7.9,7.5-18.2,11.2-30.6,11.2s-25.9-4.8-34.3-14.4c-8.9-10-13.4-24-13.4-42s4.6-31.7,13.8-41.7c8.7-9.5,20-14.2,34.1-14.2s25.4,4.3,33.8,13c3.7,3.9,6.5,8.1,8.4,12.7,2.5,5.9-2.1,12.4-8.5,12.4h-4.2Z"/>
      <path class="st1" d="M1296.3,464.1h-1.3c-5.6,0-10.2-4.6-10.2-10.2v-86.8c0-5.6,4.6-10.2,10.2-10.2h1.3c5.6,0,10.2,4.6,10.2,10.2v23.7c0,3.5,4.3,5.1,6.6,2.6l30.5-33.5c1.7-1.9,4.2-3,6.7-3h0c9,0,13.6,10.8,7.4,17.3l-19.9,20.6c-3.4,3.5-3.8,9-1,13l28.6,40.1c4.8,6.8,0,16.2-8.3,16.2h-3.1c-3.4,0-6.6-1.7-8.5-4.5l-22.5-33.2c-3.3-4.8-10.1-5.4-14.1-1.2h0c-1.6,1.7-2.5,3.9-2.5,6.2v22.4c0,5.6-4.6,10.2-10.2,10.2h0Z"/>
      <path class="st1" d="M1623.5,464.1h0c-6,0-10.9-4.9-10.9-10.9v-85.4c0-6,4.9-10.9,10.9-10.9h54.3c5,0,9.1,4.1,9.1,9.1v.9c0,5-4.1,9.1-9.1,9.1h-38.2c-2.8,0-5.2,2.3-5.2,5.2v15.2c0,2.2,1.8,4,4,4h32.8c5,0,9.1,4.1,9.1,9.1v.7c0,5-4.1,9.1-9.1,9.1h-31.7c-2.8,0-5.1,2.3-5.1,5.1v29c0,6-4.9,10.9-10.9,10.9v-.2h0Z"/>
      <path class="st1" d="M1710.2,464.1h-3.7c-5,0-9.1-4.1-9.1-9.1v-89.1c0-5,4.1-9.1,9.1-9.1h3.7c5,0,9.1,4.1,9.1,9.1v89.1c0,5-4.1,9.1-9.1,9.1Z"/>
      <path class="st1" d="M1810,392.4c-3.7,0-7-2.3-8.4-5.8-1-2.4-2.1-4.4-3.4-5.8-3.9-4.6-9.7-6.8-17.4-6.8s-12.5,2.4-17.1,7.1c-6,6.4-9,16.3-9,29.7s2,18.8,6,25.3c4.6,7.4,11.3,11.1,20.1,11.1s10.9-1.7,14.8-5.2c2.6-2.3,4.7-5.4,6.2-9.1,1.4-3.5,4.7-5.9,8.5-5.9h3.1c6.4,0,10.9,6.6,8.4,12.5-2.7,6.4-6.3,11.8-10.9,16.1-7.9,7.5-18.2,11.2-30.6,11.2s-25.9-4.8-34.3-14.4c-8.9-10-13.4-24-13.4-42s4.6-31.7,13.8-41.7c8.7-9.5,20-14.2,34.1-14.2s25.4,4.3,33.8,13c3.7,3.9,6.5,8.1,8.4,12.7,1.9,4.6-2.1,12.4-8.5,12.4h-4l-.2-.2Z"/>
    </g>
  </g>
</svg>